<svg viewBox="178.395 167.6013 152.2715 30.2777" width="152.2715" height="30.2777"
  xmlns="http://www.w3.org/2000/svg">
  <defs>
    <linearGradient id="gradient-1" x1="12" x2="12" y1="14" y2="23" gradientUnits="userSpaceOnUse"
      gradientTransform="matrix(1.37629, 0, 0, 1.37629, 172.891332, 166.22447)">
      <stop stop-color="#877EFF" />
      <stop offset="0.4615" stop-color="#685DFF" />
      <stop offset="1" stop-color="#3121FF" />
    </linearGradient>
  </defs>
  <g id="svgGroup" stroke-linecap="round" fill-rule="evenodd" font-size="9pt" stroke="#ffffff"
    stroke-width="0.25mm" fill="#ffffff"
    style="stroke: rgb(255, 255, 255); stroke-width: 0.25mm; fill: rgb(255, 255, 255);"
    transform="matrix(0.26796796917915344, 0, 0, 0.26796796917915344, 209.51813368553306, 172.8712514898552)">
    <path
      d="M 283.8 74 L 274.3 74 L 274.3 4 L 283.8 4 L 283.8 33.9 L 318.3 33.9 L 318.3 4 L 327.8 4 L 327.8 74 L 318.3 74 L 318.3 42.1 L 283.8 42.1 L 283.8 74 Z M 344.3 55.8 L 344.3 22 L 353.3 22 L 353.3 54.6 A 22.981 22.981 0 0 0 353.554 58.134 Q 353.842 59.981 354.457 61.469 A 10.136 10.136 0 0 0 355.9 63.95 A 8.404 8.404 0 0 0 361.013 66.971 A 12.807 12.807 0 0 0 363.5 67.2 Q 367.6 67.2 371.45 65.55 Q 375.3 63.9 378.3 61.1 L 378.3 22 L 387.3 22 L 387.3 60.5 A 15.602 15.602 0 0 0 387.402 62.354 Q 387.734 65.116 389.15 66.15 Q 391 67.5 393.2 67.5 L 391.3 74.5 Q 382 74.5 379.8 67.1 Q 376.3 70.7 371.7 72.95 Q 367.1 75.2 361.8 75.2 Q 357.3 75.2 353.3 73.3 A 14.441 14.441 0 0 1 347.79 68.661 A 18.266 18.266 0 0 1 346.8 67.15 A 16.24 16.24 0 0 1 345.136 63.057 Q 344.3 59.905 344.3 55.8 Z M 161.8 74 L 152.8 74 L 152.8 22 L 161.5 22 L 161.5 30.7 Q 164.3 26.5 168.65 23.65 A 17.316 17.316 0 0 1 175.756 21.025 A 22.629 22.629 0 0 1 179 20.8 A 23.225 23.225 0 0 1 184.065 21.318 Q 189.159 22.456 192.15 26.1 Q 196.275 31.126 196.488 39.209 A 33.764 33.764 0 0 1 196.5 40.1 L 196.5 74 L 187.5 74 L 187.5 41.1 A 19.265 19.265 0 0 0 187.158 37.359 Q 186.719 35.145 185.719 33.397 A 10.966 10.966 0 0 0 184.85 32.1 A 8.579 8.579 0 0 0 178.573 28.747 A 12.061 12.061 0 0 0 177.5 28.7 A 13.122 13.122 0 0 0 170.651 30.664 A 17.353 17.353 0 0 0 168.8 31.95 Q 164.7 35.2 161.8 39.6 L 161.8 74 Z M 31 74 L 21.5 74 L 21.5 12.4 L 0 12.4 L 0 4 L 52.5 4 L 52.5 12.4 L 31 12.4 L 31 74 Z M 246.4 27.2 L 246.4 0 L 255.4 0 L 255.4 61.4 A 12.15 12.15 0 0 0 255.502 63.036 Q 255.834 65.47 257.25 66.35 Q 259.1 67.5 261.3 67.5 L 259.4 74.5 Q 249.9 74.5 247.8 66.9 Q 245.6 70 241.65 72.6 Q 237.7 75.2 231.7 75.2 Q 225.3 75.2 220 71.9 A 22.692 22.692 0 0 1 212.462 64.109 A 27.622 27.622 0 0 1 211.6 62.55 A 27.533 27.533 0 0 1 209.012 54.608 A 37.221 37.221 0 0 1 208.5 48.3 A 33.94 33.94 0 0 1 209.389 40.386 A 27.963 27.963 0 0 1 211.65 34.2 A 27.291 27.291 0 0 1 216.269 27.609 A 24.186 24.186 0 0 1 220.05 24.4 Q 225.3 20.8 231.6 20.8 A 21.642 21.642 0 0 1 235.872 21.202 A 15.942 15.942 0 0 1 240.55 22.9 A 34.343 34.343 0 0 1 243.13 24.489 Q 244.354 25.324 245.325 26.174 A 16.59 16.59 0 0 1 246.4 27.2 Z M 413.6 69.7 L 413.6 74 L 405.2 74 L 405.2 0 L 414.2 0 L 414.2 27.4 Q 416.2 25.1 420.05 22.95 A 16.584 16.584 0 0 1 425.281 21.128 A 22.424 22.424 0 0 1 429.2 20.8 Q 435.2 20.8 440.45 23.95 A 22.329 22.329 0 0 1 447.628 30.917 A 27.464 27.464 0 0 1 448.9 33.05 Q 452.1 39 452.1 47.5 A 33.315 33.315 0 0 1 451.413 54.388 A 27.75 27.75 0 0 1 450.1 58.8 A 29.367 29.367 0 0 1 446.939 64.804 A 25.482 25.482 0 0 1 444.75 67.55 A 24.894 24.894 0 0 1 438.619 72.464 A 23.302 23.302 0 0 1 437.2 73.2 A 20.006 20.006 0 0 1 429.834 75.16 A 19.209 19.209 0 0 1 428.6 75.2 Q 424.1 75.2 420.15 73.55 A 30.274 30.274 0 0 1 416.847 71.942 Q 415.022 70.903 413.6 69.7 Z M 140.5 51.7 L 104.1 51.7 A 24.088 24.088 0 0 0 105.239 56.725 Q 106.575 60.538 109.2 63.1 Q 113.4 67.2 120.3 67.2 Q 124.8 67.2 128.4 66.25 Q 132 65.3 135.3 63.8 L 137.4 71.5 A 40.77 40.77 0 0 1 133.065 73.126 A 51.863 51.863 0 0 1 129.3 74.15 A 38.914 38.914 0 0 1 124.208 74.969 A 52.025 52.025 0 0 1 119.2 75.2 A 28.318 28.318 0 0 1 111.454 74.195 A 21.108 21.108 0 0 1 101.45 68.05 A 23.521 23.521 0 0 1 96.245 58.51 Q 94.9 53.845 94.9 48 A 35.359 35.359 0 0 1 95.733 40.178 A 28.84 28.84 0 0 1 97.85 34.05 A 24.642 24.642 0 0 1 102.866 26.968 A 22.887 22.887 0 0 1 106.1 24.35 A 21.048 21.048 0 0 1 116.359 20.878 A 26.205 26.205 0 0 1 118.4 20.8 Q 125.9 20.8 130.85 24.05 Q 135.8 27.3 138.3 32.8 A 28.185 28.185 0 0 1 140.726 42.664 A 33.434 33.434 0 0 1 140.8 44.9 A 75.204 75.204 0 0 1 140.509 51.597 A 69.426 69.426 0 0 1 140.5 51.7 Z M 70.5 74 L 61.5 74 L 61.5 22 L 70.2 22 L 70.2 33.3 Q 71.5 30 73.7 27.15 Q 75.9 24.3 79.2 22.55 A 14.817 14.817 0 0 1 83.88 21.026 A 19.459 19.459 0 0 1 86.9 20.8 Q 88.4 20.8 89.9 20.95 A 18.972 18.972 0 0 1 90.955 21.084 Q 91.455 21.162 91.882 21.262 A 8.817 8.817 0 0 1 92.4 21.4 L 89.7 30.7 A 9.763 9.763 0 0 0 87.555 30.088 Q 86.459 29.9 85.2 29.9 A 12.958 12.958 0 0 0 78.57 31.746 A 15.609 15.609 0 0 0 78.15 32 Q 74.822 34.086 72.678 38.442 A 22.927 22.927 0 0 0 72.65 38.5 Q 70.887 42.107 70.57 47.328 A 39.09 39.09 0 0 0 70.5 49.7 L 70.5 74 Z M 414.2 35.4 L 414.2 63.2 A 17.99 17.99 0 0 0 417.83 65.385 A 21.802 21.802 0 0 0 419.6 66.1 A 19.462 19.462 0 0 0 425.764 67.196 A 22.039 22.039 0 0 0 426.2 67.2 Q 431.1 67.2 434.85 64.8 Q 438.6 62.4 440.75 58 Q 442.9 53.6 442.9 47.8 Q 442.9 41.8 440.75 37.5 Q 438.6 33.2 435.05 30.9 Q 431.5 28.6 427.2 28.6 A 14.741 14.741 0 0 0 421.573 29.663 A 14.054 14.054 0 0 0 419.45 30.75 Q 416 32.9 414.2 35.4 Z M 246.4 60.9 L 246.4 35.1 A 15.847 15.847 0 0 0 244.289 32.927 Q 243.168 31.964 241.769 31.066 A 28.139 28.139 0 0 0 241.1 30.65 Q 237.7 28.6 233.6 28.6 A 14.946 14.946 0 0 0 228.644 29.4 A 13.385 13.385 0 0 0 225.2 31.2 A 16.69 16.69 0 0 0 220.03 37.35 A 19.924 19.924 0 0 0 219.65 38.15 A 22.19 22.19 0 0 0 217.91 44.514 A 28.113 28.113 0 0 0 217.7 48 A 24.757 24.757 0 0 0 218.293 53.519 A 20.327 20.327 0 0 0 219.8 57.85 A 18.205 18.205 0 0 0 222.84 62.363 A 16.122 16.122 0 0 0 225.55 64.7 Q 229.2 67.2 233.7 67.2 Q 237.4 67.2 240.75 65.45 Q 244.1 63.7 246.4 60.9 Z M 104 44.4 L 132.5 44.4 A 24.355 24.355 0 0 0 132.096 39.815 Q 131.6 37.231 130.496 35.207 A 12.422 12.422 0 0 0 128.7 32.7 A 12.488 12.488 0 0 0 121.739 28.924 A 18.395 18.395 0 0 0 118.2 28.6 A 13.58 13.58 0 0 0 113.088 29.535 A 12.524 12.524 0 0 0 108.6 32.65 Q 104.8 36.7 104 44.4 Z"
      vector-effect="non-scaling-stroke" />
  </g>
  <path fill="url(#gradient-1)" fill-rule="evenodd"
    d="M 180.536 167.831 C 180.113 167.551 179.57 167.525 179.123 167.764 C 178.674 168.004 178.395 168.471 178.395 168.977 L 178.395 179.987 C 178.395 189.869 186.406 197.879 196.287 197.879 L 199.039 197.879 C 199.801 197.879 200.415 197.264 200.415 196.503 L 200.415 168.977 C 200.415 168.471 200.136 168.004 199.689 167.764 C 199.242 167.525 198.699 167.551 198.277 167.831 L 194.813 170.141 L 193.715 169.594 C 191.002 168.237 187.81 168.237 185.098 169.594 L 184 170.141 L 180.536 167.831 Z M 181.148 179.987 L 181.148 171.549 L 183.138 172.875 C 183.548 173.149 184.075 173.181 184.517 172.961 L 186.328 172.055 C 188.266 171.086 190.547 171.086 192.484 172.055 L 194.295 172.961 C 194.737 173.181 195.265 173.149 195.674 172.875 L 197.663 171.549 L 197.663 195.126 L 196.287 195.126 C 187.926 195.126 181.148 188.348 181.148 179.987 Z M 192.846 177.923 C 192.846 177.543 193.155 177.235 193.534 177.235 C 193.915 177.235 194.222 177.543 194.222 177.923 C 194.222 178.304 193.915 178.611 193.534 178.611 C 193.464 178.611 193.396 178.602 193.333 178.582 C 193.252 178.448 193.146 178.327 193.018 178.224 C 192.973 178.189 192.926 178.155 192.877 178.125 C 192.857 178.062 192.846 177.993 192.846 177.923 Z M 193.534 181.363 C 193.144 181.363 192.768 181.299 192.418 181.179 L 190.48 183.6 C 190.22 183.927 189.823 184.116 189.405 184.116 C 188.988 184.116 188.592 183.927 188.332 183.6 L 186.394 181.179 C 186.044 181.299 185.669 181.363 185.276 181.363 C 183.378 181.363 181.836 179.823 181.836 177.923 C 181.836 176.023 183.378 174.482 185.276 174.482 C 187.177 174.482 188.718 176.023 188.718 177.923 C 188.718 178.417 188.614 178.887 188.426 179.313 L 189.405 180.538 L 190.385 179.313 C 190.198 178.887 190.094 178.417 190.094 177.923 C 190.094 176.023 191.635 174.482 193.534 174.482 C 195.435 174.482 196.975 176.023 196.975 177.923 C 196.975 179.823 195.435 181.363 193.534 181.363 Z M 185.935 178.125 C 185.955 178.062 185.965 177.993 185.965 177.923 C 185.965 177.543 185.658 177.235 185.276 177.235 C 184.896 177.235 184.588 177.543 184.588 177.923 C 184.588 178.304 184.896 178.611 185.276 178.611 C 185.346 178.611 185.416 178.602 185.479 178.582 C 185.56 178.448 185.664 178.327 185.794 178.224 C 185.84 178.189 185.886 178.155 185.935 178.125 Z"
    clip-rule="evenodd" style=""
    transform="matrix(0.9999999999999999, 0, 0, 0.9999999999999999, 0, 0)" />
</svg>